<!-- This SVG will be replaced with a PNG file later -->
<?xml version="1.0" encoding="UTF-8"?>
<svg width="800" height="400" version="1.1" viewBox="0 0 800 400" xmlns="http://www.w3.org/2000/svg">
    <style>
        text { font-family: Arial, sans-serif; }
        .title { font-size: 24px; fill: #4CAF50; }
        .label { font-size: 14px; fill: #ffffff; }
        .value { font-size: 12px; fill: #e0e0e0; }
    </style>
    
    <!-- Background -->
    <rect width="800" height="400" fill="#2a2a2a"/>
    
    <!-- Brine Tank -->
    <rect x="100" y="100" width="150" height="200" fill="#444" stroke="#666" stroke-width="4"/>
    <text x="175" y="200" class="label" text-anchor="middle">Brine</text>
    <text x="175" y="220" class="label" text-anchor="middle">Tank</text>
    
    <!-- Piping System -->
    <path d="M 250,200 H 350" stroke="#4CAF50" stroke-width="4" fill="none"/>
    
    <!-- Control Valve -->
    <rect x="350" y="180" width="40" height="40" fill="#666" stroke="#888" stroke-width="2"/>
    <path d="M 355,200 L 385,200 M 370,185 L 370,215" stroke="#fff" stroke-width="2"/>
    
    <!-- More Piping -->
    <path d="M 390,200 H 500" stroke="#4CAF50" stroke-width="4" fill="none"/>
    
    <!-- Pressure Sensors -->
    <circle cx="330" cy="200" r="8" fill="#4CAF50" stroke="#fff" stroke-width="2"/>
    <circle cx="410" cy="200" r="8" fill="#4CAF50" stroke="#fff" stroke-width="2"/>
    
    <!-- Flow Meter -->
    <rect x="450" y="180" width="30" height="40" fill="#555" stroke="#666" stroke-width="2"/>
    <text x="465" y="205" class="value" text-anchor="middle">FM</text>
    
    <!-- Control Panel -->
    <rect x="600" y="100" width="150" height="200" fill="#333" stroke="#555" stroke-width="2"/>
    <text x="675" y="130" class="label" text-anchor="middle">Flow Control</text>
    <text x="675" y="160" class="value" text-anchor="middle">SP: 100 L/min</text>
    <text x="675" y="180" class="value" text-anchor="middle">PV: 95 L/min</text>
    <text x="675" y="200" class="value" text-anchor="middle">Valve: 65%</text>
    <text x="675" y="220" class="value" text-anchor="middle">Temp: 45°C</text>
    <text x="675" y="240" class="value" text-anchor="middle">P1: 4.2 bar</text>
    <text x="675" y="260" class="value" text-anchor="middle">P2: 3.1 bar</text>
    
    <!-- Title -->
    <text x="400" y="50" class="title" text-anchor="middle">Brine Injection Flow Control</text>
</svg> 